<svg width="225" height="528" viewBox="0 0 225 528" fill="none" xmlns="http://www.w3.org/2000/svg">
<path d="M65.0628 175.272H56.0628C60.3962 184.272 68.963 208.372 68.563 232.772C68.063 263.272 43.063 296.772 43.063 300.272C43.063 303.772 10.063 336.772 5.06298 340.272C1.06298 343.072 0.396309 349.106 0.562976 351.772H64.563V358.272C57.763 359.872 53.3963 368.606 52.063 372.772L51.563 373.272C50.063 377.772 48.863 389.372 56.063 399.772C65.063 412.772 81.063 410.272 87.063 408.772C93.063 407.272 100.063 403.272 105.063 386.772C109.063 373.572 97.3963 362.272 91.063 358.272V351.772L165.063 350.772V276.772H157.063C157.896 277.939 157.263 281.672 148.063 287.272C136.563 294.272 119.563 291.272 111.563 282.272C103.563 273.272 106.063 265.772 105.063 261.772C104.063 257.772 107.563 243.272 126.563 237.272C141.763 232.472 153.23 244.939 157.063 251.772H165.063V175.772L90.563 175.272V168.272C104.963 162.672 105.896 144.272 104.563 135.772C101.563 128.439 91.763 114.372 76.563 116.772C57.563 119.772 54.0628 128.772 50.5628 142.772C47.7628 153.972 59.0628 164.439 65.0628 168.272V175.272Z" stroke="black"/>
<path d="M48.54 393.5C12.14 387.5 1.37337 364.667 0.540039 354L65.04 353.5V361C56.64 361 51.54 375.333 50.04 382.5C51.24 409.7 71.54 413.833 81.54 412.5C87.7067 412.167 101.04 407.3 105.04 390.5C109.04 373.7 97.04 363.833 90.54 361V353.5H165.04V427H173.04C192.24 403.8 211.373 415.333 218.54 424C224.04 432.833 230.24 453.3 211.04 464.5C191.84 475.7 177.707 461.5 173.04 453H165.04V527H85.54C80.34 521.4 79.7067 501.667 80.04 492.5C51.64 478.5 61.54 454.667 70.04 444.5C48.04 440.5 46.54 408.833 48.54 393.5Z" stroke="black"/>
<path d="M165.409 0.5H90.9091V9.5C101.709 11.9 105.409 25.5 105.909 32C106.075 39.8333 101.409 56.6 81.4087 61C61.4087 65.4 51.7422 45.1667 49.4089 34.5C26.6089 85.3 44.9089 149.667 56.9089 175.5H65.9091V168.5C52.7091 161.3 50.7424 147.833 51.4091 142C56.2091 110.8 79.7424 113.667 90.9091 119C119.309 140.2 102.742 160.833 90.9091 168.5V175.5H165.409V0.5Z" stroke="black"/>
</svg>
