<svg width="560" height="526" viewBox="0 0 560 526" fill="none" xmlns="http://www.w3.org/2000/svg">
<path d="M410.997 17.0635V1.06348C505.796 45.0635 546.497 161.063 554.997 213.563C572.197 252.363 527.497 398.397 502.997 466.563H337.997V474.063C349.597 480.063 351.497 495.563 350.997 502.563C347.397 528.563 321.497 526.73 308.997 522.563C285.797 502.963 299.33 482.063 308.997 474.063V466.563H160.497V458.563C173.697 454.163 175.33 439.063 174.497 432.063C169.297 399.663 145.997 405.897 134.997 413.063C107.797 427.463 123.664 449.397 134.997 458.563V466.563H61.997V395.063H53.497C41.497 413.063 19.497 405.897 9.99701 400.063C-7.20299 384.863 2.83034 366.397 9.99701 359.063C30.397 343.863 47.497 357.73 53.497 366.563H61.997V291.563H134.997V299.563C126.597 301.963 122.83 311.23 121.997 315.563C115.997 321.063 126.497 367.063 160.497 348.063C187.697 332.863 171.83 309.397 160.497 299.563V291.563H235.997V220.563H228.997C210.197 241.363 189.163 229.23 180.997 220.563C175.663 213.23 169.197 195.263 185.997 182.063C202.797 168.863 221.663 182.563 228.997 191.063H235.997V116.563H310.497V125.063C302.097 127.063 296.997 141.23 295.497 148.063C299.497 180.463 325.163 178.897 337.497 174.063C362.697 154.863 347.997 133.397 337.497 125.063V116.563H410.997V42.5635H402.997C398.996 52.1635 387.33 56.2301 381.997 57.0635C347.197 56.6635 351.163 26.5635 357.497 11.5635C382.297 -10.8365 398.163 5.8968 402.997 17.0635H410.997Z" stroke="black"/>
</svg>
