<svg width="452" height="389" viewBox="0 0 452 389" fill="none" xmlns="http://www.w3.org/2000/svg">
<path d="M0.461426 152.907C34.4614 71.2402 172.161 -66.0932 450.961 37.9068V52.4072H443.961C437.795 43.5739 420.661 29.6072 401.461 44.4072C382.261 59.2072 393.461 79.2406 401.461 87.4072C409.128 93.4072 428.361 100.107 443.961 78.9072H450.961V152.407H376.961V162.407C385.628 168.074 399.361 184.207 384.961 203.407C370.561 222.607 350.628 211.407 342.461 203.407C336.961 195.074 330.761 175.207 349.961 162.407V153.407H276.461V226.907H268.461C259.795 216.407 237.861 202.007 219.461 228.407C216.961 239.741 216.861 263.307 236.461 266.907C256.061 270.507 265.961 259.741 268.461 253.907H276.461V327.907H201.461V336.907C212.461 344.907 227.861 365.707 201.461 384.907C188.628 390.574 162.761 392.207 161.961 353.407C161.161 314.607 161.628 336.241 161.961 351.907C162.961 346.907 167.161 336.907 175.961 336.907V327.907H101.961V253.907H109.461C118.961 266.074 142.761 281.807 161.961 247.407C164.128 237.074 162.061 215.607 136.461 212.407C129.961 212.241 115.461 214.907 109.461 226.907H101.961V153.407H0.461426" stroke="black"/>
</svg>
