<svg width="551" height="404" viewBox="0 0 551 404" fill="none" xmlns="http://www.w3.org/2000/svg">
<path d="M79.6553 235.516H0.655273C13.4553 282.317 58.6553 285.683 79.6553 281.516C138.655 265.016 179.155 276.016 203.155 277.016C222.355 277.816 236.155 302.349 240.655 314.516C245.655 343.682 260.555 402.116 280.155 402.516C304.655 403.016 339.155 385.516 342.655 385.516C375.655 378.516 462.655 327.016 485.155 321.016C503.155 316.216 535.989 288.349 550.155 275.016C550.989 258.016 547.955 215.816 529.155 183.016C510.355 150.216 516.322 88.6825 521.655 62.016H354.155V68.5156C366.955 73.7154 369.155 87.6822 368.655 94.0156C355.055 133.616 328.322 118.516 316.655 106.016C306.655 83.2152 320.822 71.5154 329.155 68.5156V62.016H181.155V52.016C195.555 40.4162 195.489 28.1827 193.655 23.516C184.055 -7.28404 158.989 -0.650711 147.655 6.51596C130.055 29.316 143.655 46.3493 152.655 52.016V62.016H79.6553V134.516H86.6553C92.2553 120.516 106.989 119.349 113.655 120.516C145.655 130.516 138.989 156.683 131.655 168.516C109.655 185.316 92.4886 171.183 86.6553 162.016H79.6553V235.516Z" stroke="black"/>
</svg>
